<svg width="41" height="41" viewBox="0 0 41 41" fill="none" xmlns="http://www.w3.org/2000/svg">
<g id="phone-call (2) 2" clip-path="url(#clip0_2_2038)">
<g id="Group">
<g id="Group_2">
<path id="Vector" d="M32.4029 25.3976C31.5635 24.5236 30.5511 24.0564 29.4781 24.0564C28.4137 24.0564 27.3926 24.515 26.5186 25.389L23.7842 28.1148C23.5592 27.9936 23.3342 27.8811 23.1179 27.7686C22.8063 27.6129 22.5121 27.4658 22.2612 27.31C19.6998 25.6832 17.3721 23.5631 15.1395 20.82C14.0578 19.4528 13.3309 18.3019 12.8031 17.1337C13.5127 16.4847 14.1703 15.8097 14.8107 15.1607C15.053 14.9184 15.2953 14.6675 15.5375 14.4252C17.3547 12.608 17.3547 10.2543 15.5375 8.43708L13.1752 6.07472C12.9069 5.80647 12.63 5.52956 12.3704 5.25265C11.8512 4.71615 11.3061 4.16233 10.7436 3.64313C9.90423 2.81241 8.90044 2.37109 7.84474 2.37109C6.78903 2.37109 5.76794 2.81241 4.9026 3.64313C4.89395 3.65179 4.89395 3.65179 4.8853 3.66044L1.94316 6.62854C0.835539 7.73616 0.203846 9.08608 0.0653923 10.6523C-0.142288 13.1791 0.601899 15.5328 1.17302 17.0731C2.57486 20.8546 4.66896 24.3592 7.79282 28.1148C11.583 32.6405 16.1433 36.2143 21.3526 38.7324C23.3428 39.6756 25.9994 40.7919 28.9675 40.9823C29.1492 40.9909 29.3396 40.9996 29.5127 40.9996C31.5116 40.9996 33.1903 40.2814 34.5056 38.8536C34.5143 38.8363 34.5316 38.8276 34.5403 38.8103C34.9902 38.2651 35.5094 37.7719 36.0546 37.244C36.4267 36.8892 36.8074 36.5172 37.1795 36.1278C38.0362 35.2365 38.4862 34.1981 38.4862 33.1337C38.4862 32.0607 38.0275 31.0309 37.1536 30.1656L32.4029 25.3976ZM35.5008 34.5096C35.4921 34.5096 35.4921 34.5182 35.5008 34.5096C35.1633 34.873 34.8172 35.2018 34.4451 35.5653C33.8826 36.1018 33.3115 36.6643 32.775 37.296C31.901 38.2305 30.8712 38.6718 29.5213 38.6718C29.3915 38.6718 29.2531 38.6718 29.1233 38.6632C26.5532 38.4988 24.1649 37.495 22.3737 36.6383C17.4759 34.2673 13.1752 30.9011 9.60136 26.635C6.65058 23.0785 4.67762 19.7903 3.37096 16.2597C2.56621 14.105 2.27199 12.4263 2.40179 10.8427C2.48832 9.83027 2.87772 8.9909 3.59595 8.27267L6.54674 5.32188C6.97075 4.92383 7.42072 4.70749 7.86204 4.70749C8.4072 4.70749 8.84852 5.03632 9.12543 5.31323C9.13408 5.32188 9.14274 5.33053 9.15139 5.33919C9.67924 5.83243 10.1811 6.34297 10.709 6.88813C10.9772 7.16504 11.2541 7.44195 11.5311 7.72751L13.8934 10.0899C14.8107 11.0071 14.8107 11.8551 13.8934 12.7724C13.6425 13.0233 13.4002 13.2743 13.1492 13.5166C12.4223 14.2608 11.7301 14.953 10.9772 15.628C10.9599 15.6453 10.9426 15.654 10.934 15.6713C10.1898 16.4155 10.3282 17.1423 10.484 17.6356C10.4927 17.6615 10.5013 17.6875 10.51 17.7135C11.1243 19.2018 11.9897 20.6037 13.305 22.2738L13.3136 22.2824C15.702 25.2246 18.2201 27.5177 20.9978 29.2743C21.3526 29.4993 21.716 29.681 22.0622 29.8541C22.3737 30.0098 22.6679 30.157 22.9188 30.3127C22.9534 30.33 22.9881 30.356 23.0227 30.3733C23.3169 30.5204 23.5938 30.5896 23.8794 30.5896C24.5976 30.5896 25.0476 30.1396 25.1947 29.9925L28.1541 27.0331C28.4483 26.7389 28.9156 26.3841 29.4608 26.3841C29.9973 26.3841 30.4386 26.7216 30.7068 27.0158C30.7155 27.0244 30.7155 27.0244 30.7241 27.0331L35.4921 31.8011C36.3834 32.6837 36.3834 33.5923 35.5008 34.5096Z" fill="#FF6138"/>
<path id="Vector_2" d="M22.1574 9.75297C24.4245 10.1337 26.484 11.2067 28.1282 12.8509C29.7723 14.495 30.8367 16.5545 31.2261 18.8217C31.3212 19.3928 31.8145 19.7908 32.3769 19.7908C32.4462 19.7908 32.5067 19.7822 32.576 19.7735C33.2163 19.6697 33.6403 19.064 33.5365 18.4236C33.0692 15.6805 31.7712 13.1797 29.7896 11.1981C27.808 9.21647 25.3072 7.91847 22.5641 7.45119C21.9237 7.34735 21.3267 7.77136 21.2142 8.40305C21.1017 9.03475 21.517 9.64913 22.1574 9.75297Z" fill="#292929"/>
<path id="Vector_3" d="M40.9524 18.086C40.1823 13.5689 38.0535 9.45859 34.7826 6.18763C31.5116 2.91668 27.4013 0.787956 22.8842 0.0178098C22.2525 -0.0946835 21.6555 0.337983 21.543 0.969676C21.4391 1.61002 21.8631 2.2071 22.5035 2.3196C26.5359 3.00321 30.2136 4.9156 33.1384 7.83177C36.0633 10.7566 37.967 14.4343 38.6506 18.4667C38.7458 19.0378 39.239 19.4359 39.8015 19.4359C39.8707 19.4359 39.9313 19.4272 40.0005 19.4186C40.6322 19.3234 41.0649 18.7177 40.9524 18.086Z" fill="#131839"/>
</g>
</g>
</g>
<defs>
<clipPath id="clip0_2_2038">
<rect width="41" height="41" fill="white"/>
</clipPath>
</defs>
</svg>
