<svg width="43" height="43" viewBox="0 0 43 43" fill="none" xmlns="http://www.w3.org/2000/svg">
<g id="pin 1" clip-path="url(#clip0_2_2047)">
<g id="Group">
<g id="Group_2">
<path id="Vector" d="M37.083 11.2672C35.5501 6.3145 31.568 2.29962 26.6907 0.789165C21.4971 -0.819219 16.0825 0.0538819 11.8356 3.18457C9.80063 4.68461 8.11204 6.6632 6.95247 8.90617C5.75402 11.2244 5.12061 13.8343 5.12061 16.4538C5.12061 20.0272 6.25095 23.423 8.38953 26.2742L21.5017 42.9995L34.5975 26.2956L34.6139 26.2742C37.8142 22.0071 38.7143 16.5372 37.083 11.2672ZM32.6055 24.7518L21.5017 38.9163L10.3978 24.7518C8.5942 22.3423 7.64081 19.4732 7.64081 16.4538C7.64081 12.0419 9.76796 7.83974 13.331 5.21321C16.9267 2.56258 21.5244 1.82763 25.9453 3.19658C30.0397 4.46457 33.385 7.84259 34.6757 12.0123C36.0638 16.4973 35.3092 21.1399 32.6055 24.7518Z" fill="#FF6138"/>
</g>
</g>
<g id="Group_3">
<g id="Group_4">
<path id="Vector_2" d="M21.5017 7.63379C16.6381 7.63379 12.6812 11.5907 12.6812 16.4543C12.6812 21.318 16.6381 25.2749 21.5017 25.2749C26.3653 25.2749 30.3222 21.318 30.3222 16.4543C30.3222 11.5907 26.3653 7.63379 21.5017 7.63379ZM21.5017 22.7548C18.0277 22.7548 15.2013 19.9284 15.2013 16.4543C15.2013 12.9803 18.0276 10.1539 21.5017 10.1539C24.9758 10.1539 27.8021 12.9802 27.8021 16.4543C27.8021 19.9283 24.9757 22.7548 21.5017 22.7548Z" fill="#131839"/>
</g>
</g>
</g>
<defs>
<clipPath id="clip0_2_2047">
<rect width="43" height="43" fill="white"/>
</clipPath>
</defs>
</svg>
